<?xml version="1.0" encoding="utf-8"?>
<!-- Generator: Adobe Illustrator 16.0.0, SVG Export Plug-In . SVG Version: 6.00 Build 0)  -->
<!DOCTYPE svg PUBLIC "-//W3C//DTD SVG 1.1//EN" "http://www.w3.org/Graphics/SVG/1.1/DTD/svg11.dtd">
<svg version="1.1" id="Layer_1" xmlns="http://www.w3.org/2000/svg" xmlns:xlink="http://www.w3.org/1999/xlink" x="0px" y="0px"
	 width="512px" height="512px" viewBox="0 0 512 512" enable-background="new 0 0 512 512" xml:space="preserve">
<circle fill="#1DAFAC" cx="256" cy="256" r="256"/>
<path fill="#128B86" d="M356.705,119.811l-31.461,39.65l-87.921,188.282L113.778,468.878l0,0C154.458,496.111,203.371,512,256,512
	c135.184,0,245.881-104.784,255.333-237.561L356.705,119.811z"/>
<rect x="213.333" y="292.219" fill="#E2C3A7" width="85.333" height="85.333"/>
<rect x="255.431" y="292.219" fill="#D6B69C" width="43.236" height="85.333"/>
<path fill="#D9EDEC" d="M199.456,351.454l-45.22,9.044c-23.024,4.605-39.596,24.82-39.596,48.3v59.81
	c40.432,27.066,89.05,42.86,141.36,42.86c52.31,0,100.928-15.794,141.36-42.86v-59.81c0-23.479-16.572-43.696-39.597-48.3
	l-45.22-9.044l-7.992-11.666c-1.495-2.185-4.327-3.007-6.759-1.965L256,355.83l-41.543-17.987c-2.415-1.053-5.239-0.262-6.754,1.894
	L199.456,351.454z"/>
<path fill="#A9BFBE" d="M357.764,360.5l-45.22-9.044l-7.992-11.666c-1.495-2.185-4.327-3.007-6.759-1.965L256,355.83l-0.574-0.248
	v155.877c0.191,0,0.381,0.01,0.574,0.01c52.31,0,100.928-15.794,141.36-42.86v-59.81C397.36,385.318,380.788,365.104,357.764,360.5z
	"/>
<path fill="#DBB491" d="M347.531,205.44c0.459-4.244,0.697-8.428,0.697-12.509c0-53.974-41.293-97.728-92.229-97.728
	c-50.936,0-92.229,43.753-92.229,97.728c0,4.08,0.24,8.264,0.698,12.509c-8.945,2.326-13.202,16.087-9.506,30.817
	c3.708,14.776,14.014,24.921,23.018,22.661c0.821-0.205,1.586-0.538,2.326-0.927c16.667,33.452,44.351,60.594,75.693,60.594
	s59.027-27.14,75.693-60.594c0.739,0.39,1.505,0.722,2.325,0.927c9.005,2.26,19.31-7.885,23.019-22.661
	C360.732,221.527,356.476,207.763,347.531,205.44z"/>
<path fill="#CCA483" d="M347.531,205.44c0.459-4.244,0.697-8.428,0.697-12.509c0-53.974-41.293-97.728-92.229-97.728
	c-0.193,0-0.381,0.014-0.574,0.016v223.35c0.191,0.002,0.383,0.016,0.574,0.016c31.342,0,59.027-27.139,75.693-60.594
	c0.739,0.39,1.505,0.722,2.325,0.927c9.005,2.26,19.31-7.885,23.019-22.661C360.732,221.527,356.476,207.763,347.531,205.44z"/>
<path fill="#494948" d="M204.14,170.667c0,0,40.081,38.357,121.966,24.566c0,0,7.939-1.998,21.425,10.207
	c0,0,22.535-32.618,9.175-85.628c0,0-41.374-13.36-60.769-25.428c-19.394-12.067-71.11-24.997-82.747,11.205
	c0,0-37.495-4.741-47.838,34.047c-10.343,38.788-0.883,65.803-0.883,65.803S183.884,158.599,204.14,170.667z"/>
<path fill="#282826" d="M356.705,119.811c0,0-41.374-13.36-60.768-25.428c-8.976-5.584-24.869-11.343-40.513-12.341v112.376
	c18.492,4.07,42.015,5.642,70.681,0.815c0,0,7.939-1.998,21.425,10.207C347.531,205.44,370.066,172.822,356.705,119.811z"/>
<polygon fill="#B7CECC" points="256,481.461 211.32,401.291 256,356.752 300.68,401.291 "/>
<polygon fill="#8EA5A2" points="300.68,401.291 256,356.752 255.426,357.324 255.426,480.43 256,481.461 "/>
<polygon fill="#7D89AF" points="274.677,375.514 256,356.752 237.323,375.514 247.811,388.992 247.811,470.411 264.189,470.411 
	264.189,388.992 "/>
<g>
	<polygon fill="#526295" points="256,356.752 255.426,357.329 255.426,470.411 264.189,470.411 264.189,388.992 274.677,375.514 	
		"/>
	<path fill="#526295" d="M358.384,360.107l-35.807-6.682L256,466.673l-66.655-113.196l-35.73,6.631
		c-23.164,4.635-39.838,24.973-39.838,48.596v60.175C154.457,496.109,203.371,512,256,512s101.543-15.891,142.222-43.122v-60.175
		C398.222,385.081,381.549,364.742,358.384,360.107z"/>
</g>
<path fill="#273B7A" d="M358.384,360.107l-35.807-6.682L256,466.673l-0.574-0.976v46.29c0.191,0,0.381,0.01,0.574,0.01
	c52.629,0,101.543-15.891,142.222-43.122v-60.173C398.222,385.081,381.549,364.742,358.384,360.107z"/>
</svg>
