<?xml version="1.0" encoding="utf-8"?>
<!-- Generator: Adobe Illustrator 16.0.0, SVG Export Plug-In . SVG Version: 6.00 Build 0)  -->
<!DOCTYPE svg PUBLIC "-//W3C//DTD SVG 1.1//EN" "http://www.w3.org/Graphics/SVG/1.1/DTD/svg11.dtd">
<svg version="1.1" id="Layer_1" xmlns="http://www.w3.org/2000/svg" xmlns:xlink="http://www.w3.org/1999/xlink" x="0px" y="0px"
	 width="512px" height="512px" viewBox="0 0 512 512" enable-background="new 0 0 512 512" xml:space="preserve">
<g>
	<g>
		<circle fill="#1DAFAC" cx="256" cy="256" r="256"/>
		<path fill="#1DAFAC" d="M123.814,472.781H392.2c60.418-38.04,103.808-100.629,116.184-173.773L322.367,112.992L123.814,472.781z"
			/>
	</g>
</g>
<path fill="#128B86" d="M123.814,472.781H392.2c60.418-38.04,103.808-100.629,116.184-173.773L322.367,112.992L123.814,472.781z"/>
<path fill="#494948" d="M202.416,101.71c0,0-13.465-7.871-34.047,11.205c-35.34,32.754-41.805,148.256,21.549,247.812h145.239
	c0,0,69.675-160.181-2.155-241.205C284.262,64.543,202.416,101.71,202.416,101.71z"/>
<path fill="#333333" d="M333.002,119.524c-22.566-25.455-52.227-31.153-77.576-29.937v271.142h79.731
	C335.157,360.727,404.832,200.547,333.002,119.524z"/>
<rect x="213.333" y="292.219" fill="#E2C3A7" width="85.333" height="104.296"/>
<rect x="255.431" y="292.219" fill="#D6B69C" width="43.236" height="104.296"/>
<path fill="#D9EDEC" d="M199.456,351.454l-45.22,9.044c-23.024,4.605-39.596,24.82-39.596,48.3v59.81
	c40.432,27.066,89.05,42.86,141.36,42.86c52.31,0,100.928-15.794,141.36-42.86v-59.81c0-23.479-16.572-43.696-39.597-48.3
	l-45.22-9.044l-7.992-11.666c-1.495-2.185-4.327-3.007-6.759-1.965L256,385.322l-41.543-47.48c-2.415-1.053-5.239-0.262-6.754,1.893
	L199.456,351.454z"/>
<path fill="#AABAB9" d="M357.764,360.5l-45.22-9.044l-7.992-11.666c-1.495-2.185-4.327-3.007-6.759-1.965L256,385.322l-0.574-0.655
	v126.792c0.191,0,0.381,0.01,0.574,0.01c52.31,0,100.928-15.794,141.36-42.86v-59.81C397.36,385.318,380.788,365.104,357.764,360.5z
	"/>
<path fill="#DBB491" d="M347.531,205.44c0.459-4.244,0.697-8.428,0.697-12.509c0-53.974-41.293-97.728-92.229-97.728
	c-50.936,0-92.229,43.753-92.229,97.728c0,4.08,0.24,8.264,0.698,12.509c-8.945,2.326-13.202,16.087-9.506,30.817
	c3.708,14.776,14.014,24.921,23.018,22.661c0.821-0.205,1.586-0.538,2.326-0.927c16.667,33.452,44.351,60.594,75.693,60.594
	s59.027-27.14,75.693-60.594c0.739,0.39,1.505,0.722,2.325,0.927c9.005,2.26,19.31-7.885,23.019-22.661
	C360.732,221.527,356.476,207.763,347.531,205.44z"/>
<path fill="#CCA483" d="M347.531,205.44c0.459-4.244,0.697-8.428,0.697-12.509c0-53.974-41.293-97.728-92.229-97.728
	c-0.193,0-0.381,0.014-0.574,0.016v223.35c0.191,0.002,0.381,0.016,0.574,0.016c31.342,0,59.027-27.139,75.693-60.594
	c0.739,0.39,1.505,0.722,2.325,0.927c9.005,2.26,19.31-7.885,23.019-22.661C360.732,221.527,356.476,207.763,347.531,205.44z"/>
<polygon fill="#B7CECC" points="256,481.461 211.32,401.291 256,385.322 300.68,401.291 "/>
<polygon fill="#8EA3A0" points="300.68,401.291 256,385.322 255.426,385.527 255.426,480.432 256,481.461 "/>
<path fill="#526295" d="M189.345,353.477l-35.73,6.633c-23.164,4.634-39.838,24.972-39.838,48.595v60.175
	c40.531,27.133,89.24,42.996,141.648,43.111v-46.289L189.345,353.477z"/>
<path fill="#273B7A" d="M358.384,360.107l-35.873-6.66L256,466.673l-0.574-0.974v46.289c0.191,0,0.381,0.01,0.574,0.01
	c52.629,0,101.543-15.891,142.222-43.122v-60.173C398.222,385.081,381.549,364.742,358.384,360.107z"/>
<path fill="#494948" d="M330.847,279.704C330.4,187.74,220.948,155.152,220.948,155.152s-21.592,34.204-56.479,50.288
	c0,0-5.868,0.998-9.892,11.342c-4.024,10.343-12.929-88.35,53.872-119.38c66.801-31.03,117.634-2.481,141.359,50.424
	C387.305,231.434,330.847,279.704,330.847,279.704z"/>
<path fill="#333333" d="M349.81,147.825c-17.788-39.665-50.815-65.639-94.384-63.078v85.47
	c32.125,17.601,75.143,51.903,75.421,109.487C330.847,279.704,387.305,231.434,349.81,147.825z"/>
<g>
	<circle fill="#D9EDEC" cx="256" cy="403.963" r="4.31"/>
	<circle fill="#D9EDEC" cx="256" cy="421.788" r="4.31"/>
</g>
</svg>
